<svg xmlns="http://www.w3.org/2000/svg" viewBox="0 0 64 64">
  <rect width="64" height="64" rx="16" fill="#020617" />
  <path
    d="M14 46V18h11.2c4.4 0 8 1.3 10.7 3.9 2.7 2.6 4 6 4 10.1s-1.3 7.5-4 10.1c-2.7 2.6-6.3 3.9-10.7 3.9H14Zm7.1-6.2h3.8c2.5 0 4.4-.7 5.8-2.1 1.4-1.4 2.1-3.3 2.1-5.7s-.7-4.3-2.1-5.7c-1.4-1.4-3.3-2.1-5.8-2.1h-3.8v15.6Z"
    fill="#f59e0b"
  />
  <path
    d="M48.2 46.5c-3.4 0-6.2-1.1-8.5-3.2-2.2-2.1-3.3-4.9-3.3-8.3v-6c0-3.4 1.1-6.2 3.3-8.3 2.3-2.1 5.1-3.2 8.5-3.2 1.5 0 2.9.2 4.1.7v6.5c-1.1-.6-2.3-.9-3.8-.9-1.5 0-2.7.5-3.6 1.4-.9.9-1.4 2.2-1.4 3.8v6c0 1.6.5 2.9 1.4 3.8.9.9 2.1 1.4 3.6 1.4 1.5 0 2.8-.3 3.8-.9v6.5c-1.2.5-2.6.7-4.1.7Z"
    fill="#e0f2fe"
  />
  <path d="M12 52h40" stroke="#f59e0b" stroke-width="4" stroke-linecap="round" />
</svg>
